<svg width="64" height="64" viewBox="0 0 64 64" fill="none" xmlns="http://www.w3.org/2000/svg">
<g clip-path="url(#clip0)">
<path d="M31.5796 63.0795C48.9766 63.0795 63.0796 48.9764 63.0796 31.5795C63.0796 14.1825 48.9766 0.0794678 31.5796 0.0794678C14.1826 0.0794678 0.0795898 14.1825 0.0795898 31.5795C0.0795898 48.9764 14.1826 63.0795 31.5796 63.0795Z" fill="#B7DBE6"/>
<path d="M31.5797 11.1846C20.3159 11.1846 11.1848 20.3157 11.1848 31.5794C11.1848 42.8432 20.3159 51.9743 31.5797 51.9743C42.8435 51.9743 51.9746 42.8432 51.9746 31.5794C51.9457 20.3277 42.8315 11.2135 31.5797 11.1846ZM31.5797 50.9756C20.9034 50.9756 12.2458 42.3258 12.2362 31.6495C12.2265 20.9732 20.8684 12.3078 31.5447 12.2884C42.221 12.2691 50.8943 20.9032 50.9233 31.5794C50.8944 42.2506 42.2509 50.8942 31.5797 50.923V50.9756Z" fill="black"/>
<path d="M31.5796 43.932C26.2961 43.932 22.013 39.6489 22.013 34.3654H20.9617C20.9617 40.2295 25.7155 44.9833 31.5796 44.9833C37.4437 44.9833 42.1976 40.2295 42.1976 34.3654H41.1463C41.1463 39.6489 36.8631 43.932 31.5796 43.932Z" fill="black"/>
<path d="M39.6219 21.5397C41.2766 21.5397 42.618 22.8811 42.618 24.5358C42.618 26.1906 41.2766 27.532 39.6219 27.532C37.9672 27.532 36.6257 26.1906 36.6257 24.5358C36.6257 22.8811 37.9672 21.5397 39.6219 21.5397Z" fill="black"/>
<path d="M23.5374 21.5397C25.1921 21.5397 26.5336 22.8811 26.5336 24.5358C26.5336 26.1906 25.1921 27.532 23.5374 27.532C21.8827 27.532 20.5413 26.1906 20.5413 24.5358C20.5413 22.8811 21.8827 21.5397 23.5374 21.5397Z" fill="black"/>
</g>
<defs>
<clipPath id="clip0">
<rect width="63" height="63" fill="white" transform="translate(0.0795898 0.0794678)"/>
</clipPath>
</defs>
</svg>
