<svg width="124" height="19" viewBox="0 0 124 19" fill="none" xmlns="http://www.w3.org/2000/svg">
<path d="M2.052 11.696C2.052 13.262 1.674 13.334 0.972005 13.37C0.846005 13.37 0.630005 13.388 0.630005 13.676C0.630005 14 0.936005 14 1.008 14C1.692 14 2.376 13.892 3.04201 13.892C3.744 13.892 4.428 14 5.14801 14C5.31001 14 5.49001 13.982 5.49001 13.676C5.49001 13.514 5.49001 13.388 5.18401 13.37C4.26601 13.316 3.83401 13.28 3.83401 11.696V8.09601C3.83401 7.52001 4.014 7.53801 4.284 7.53801H5.09401C6.228 7.53801 6.534 7.98801 6.642 8.49201L6.768 9.03201C6.84001 9.37401 6.93 9.66201 7.182 9.66201C7.45201 9.66201 7.39801 9.28401 7.38001 8.92401C7.30801 7.82601 7.29001 6.99801 7.41601 5.73801C7.434 5.54001 7.48801 5.10801 7.20001 5.10801C6.98401 5.10801 6.93 5.36001 6.894 5.50401L6.768 5.91801C6.642 6.33201 6.39001 6.83601 5.50801 6.83601H4.302C3.834 6.83601 3.83401 6.45801 3.83401 6.18801V2.85801C3.83401 2.26401 3.906 2.10201 5.09401 2.10201C6.39001 2.10201 7.308 2.03001 7.88401 3.86601C7.938 4.04601 8.028 4.28001 8.24401 4.28001C8.46001 4.28001 8.47801 4.02801 8.47801 3.81201C8.49601 3.09201 8.42401 3.09201 8.47801 2.12001C8.49601 1.74201 8.51401 1.61601 8.46001 1.50801C8.40601 1.40001 8.316 1.40001 8.208 1.40001C7.722 1.40001 6.03001 1.47201 5.41801 1.47201L2.952 1.45401C2.664 1.45401 2.39401 1.45401 2.10601 1.43601C1.76401 1.41801 1.44 1.40001 1.098 1.40001C0.666005 1.40001 0.630005 1.52601 0.630005 1.70601C0.630005 1.97601 0.846005 2.01201 0.954005 2.01201C1.8 2.03001 2.052 2.30001 2.052 3.68601V11.696Z" fill="black"/>
<path d="M15.2231 6.54801C15.2411 5.84601 15.0791 4.56801 13.0091 4.56801C11.5511 4.56801 10.6151 5.34201 10.2191 5.70201C9.39108 6.45801 9.26508 7.19601 9.26508 7.46601C9.26508 7.59201 9.24708 7.62801 9.35508 7.75401C9.48108 7.86201 9.82308 7.79001 9.98508 7.73601L10.3271 7.62801C10.8131 7.48401 10.9571 6.98001 11.0471 6.72801C11.2451 6.09801 11.6231 5.16201 12.6671 5.16201C13.4771 5.16201 13.6031 5.82801 13.5851 6.67401L13.5311 8.60001C13.5311 8.85201 13.6031 8.97801 13.1531 9.21201C10.6151 10.508 9.35508 11.264 9.35508 12.722C9.35508 13.694 9.89508 14.36 10.7771 14.36C11.9111 14.36 12.9371 13.334 13.2251 12.974C13.3331 12.848 13.3871 12.776 13.4411 12.776C13.5131 12.776 13.5311 12.884 13.5311 12.938C13.5671 13.244 13.8191 14.324 14.7371 14.324C15.2951 14.324 15.7271 13.964 16.1771 13.478C16.3571 13.28 16.5371 13.01 16.5371 12.866C16.5371 12.812 16.5011 12.668 16.3211 12.668C16.2311 12.668 16.1591 12.776 16.0691 12.866C15.9791 12.956 15.7811 13.136 15.5651 13.136C15.0791 13.136 15.0791 12.254 15.0971 11.714L15.2231 6.54801ZM13.4951 11.066C13.4771 12.65 12.4331 13.064 11.9291 13.064C11.2271 13.064 11.1371 12.29 11.1371 12.02C11.1371 10.778 12.7031 10.004 13.0811 9.84201C13.3331 9.73401 13.3871 9.73401 13.4051 9.73401C13.5131 9.73401 13.5131 9.87801 13.5131 9.98601L13.4951 11.066Z" fill="black"/>
<path d="M18.7277 12.038C18.7277 13.046 18.5117 13.244 18.0437 13.334L17.7377 13.388C17.5217 13.424 17.5037 13.604 17.5037 13.676C17.5037 13.748 17.4857 14 17.9537 14C18.5117 14 19.0517 13.928 19.5917 13.928C20.1857 13.928 20.7977 14 21.4097 14C21.6077 14 21.8777 13.982 21.8777 13.676C21.8777 13.55 21.7697 13.406 21.6257 13.388L21.3017 13.334C20.4377 13.19 20.3297 12.848 20.3297 12.038V8.36601C20.3297 6.98001 20.8517 6.08001 21.3377 6.08001C21.6437 6.08001 21.7337 6.33201 21.8597 6.53001C22.0757 6.89001 22.3817 6.99801 22.5977 6.99801C23.0297 6.99801 23.5877 6.67401 23.5877 5.90001C23.5877 5.01801 22.9757 4.65801 22.3817 4.65801C21.7157 4.65801 21.2477 5.16201 20.9417 5.57601L20.6537 5.97201C20.4017 6.31401 20.3477 6.38601 20.3117 6.38601C20.2037 6.38601 20.2397 6.22401 20.2217 6.08001C20.1677 5.55801 20.2577 5.23401 20.2577 4.67601C20.2577 4.64001 20.2577 4.42401 20.0417 4.42401C19.9517 4.42401 19.8617 4.47801 19.7897 4.55001C19.4837 4.82001 19.4117 5.05401 18.7097 5.57601C18.1337 6.00801 18.0437 5.91801 17.8097 6.06201C17.6837 6.13401 17.6657 6.22401 17.6657 6.33201C17.6657 6.60201 17.7917 6.58401 17.8997 6.58401H18.0437C18.7277 6.58401 18.7277 7.05201 18.7277 7.55601V12.038Z" fill="black"/>
<path d="M33.5129 2.15601C33.4589 1.99401 33.4229 1.85001 33.3689 1.68801C33.3329 1.58001 33.2969 1.47201 33.2609 1.36401C33.2249 1.27401 33.1529 1.05801 32.8469 1.05801C32.5769 1.05801 32.5229 1.23801 32.4869 1.32801C32.3789 1.63401 32.3069 1.90401 32.1449 2.44401L29.3009 11.696C28.9409 12.884 28.6169 13.136 28.2209 13.244L28.0229 13.298C27.8429 13.352 27.6089 13.406 27.6089 13.694C27.6089 13.982 27.8609 14 28.0409 14C28.5629 14 29.0849 13.892 29.6069 13.892C30.0929 13.892 30.5789 14 31.0649 14C31.4069 14 31.4609 13.838 31.4609 13.694C31.4609 13.406 31.3349 13.37 31.0469 13.352C30.7229 13.334 29.9849 13.316 29.9849 12.506C29.9849 12.218 30.0209 12.038 30.0749 11.84L30.6149 9.84201C30.6689 9.62601 30.6689 9.44601 31.0649 9.44601H33.6209C33.7649 9.44601 33.9449 9.46401 34.0709 9.89601L34.7549 12.2C34.8089 12.416 34.8629 12.542 34.8629 12.83C34.8629 13.046 34.7729 13.262 34.4489 13.316C34.3409 13.334 34.2509 13.316 34.1429 13.316C33.7469 13.298 33.6029 13.406 33.6029 13.658C33.6029 13.982 33.9449 14 34.0709 14C34.7369 14 35.3849 13.892 36.0329 13.892C36.6269 13.892 37.2209 14 37.8329 14C38.1389 14 38.1929 13.82 38.1929 13.712C38.1929 13.424 38.0129 13.388 37.7249 13.352C37.2029 13.298 37.0409 13.226 36.6809 12.11L33.5129 2.15601ZM33.5849 8.31201C33.7109 8.72601 33.5129 8.74401 33.3689 8.74401H31.1729C31.0829 8.74401 30.9929 8.72601 30.9929 8.60001C30.9929 8.47401 31.0469 8.38401 31.0649 8.31201L32.2169 4.44201C32.2349 4.37001 32.2349 4.26201 32.3069 4.26201C32.3609 4.26201 32.3789 4.37001 32.3969 4.46001L33.5849 8.31201Z" fill="black"/>
<path d="M44.1183 6.53001C44.0283 6.26001 43.8843 5.63001 44.6583 5.55801C45.1263 5.50401 45.2523 5.50401 45.2523 5.21601C45.2523 5.07201 45.1983 4.92801 44.7843 4.92801C41.5263 4.92801 42.5343 5.00001 40.4463 5.00001C39.2943 5.00001 38.1603 4.92801 36.9723 4.92801C36.5943 4.92801 36.5583 5.09001 36.5583 5.21601C36.5583 5.39601 36.5943 5.46801 36.9363 5.52201C37.4043 5.59401 37.4763 5.48601 38.0343 7.05201L40.4643 13.874C40.5363 14.108 40.5363 14.36 40.8783 14.36C41.0943 14.36 41.1303 14.288 41.2743 13.874L43.1463 8.56401L45.0003 13.838C45.1443 14.234 45.1983 14.36 45.4503 14.36C45.6843 14.36 45.7203 14.216 45.8463 13.838L47.9523 7.86201C48.3483 6.72801 48.6363 5.70201 49.4283 5.54001L49.6083 5.50401C49.6983 5.48601 49.8783 5.45001 49.8783 5.23401C49.8783 4.92801 49.5543 4.92801 49.4463 4.92801C49.0683 4.92801 48.6903 5.00001 48.3123 5.00001C47.8263 5.00001 47.3583 4.92801 46.8723 4.92801C46.4583 4.92801 46.4403 5.10801 46.4403 5.21601C46.4403 5.32401 46.4403 5.48601 46.7823 5.54001C47.0343 5.57601 47.7723 5.57601 47.7723 6.18801C47.7723 6.42201 47.6643 6.71001 47.1783 8.11401L46.1343 11.192C46.1163 11.246 46.0263 11.516 45.9543 11.516C45.8283 11.516 45.8103 11.318 45.7743 11.192L44.1183 6.53001ZM42.7503 7.50201C42.8043 7.66401 42.8403 7.70001 42.7503 7.93401L41.5983 11.192C41.5083 11.426 41.4543 11.534 41.4003 11.534C41.3463 11.534 41.3103 11.408 41.2383 11.192L39.6363 6.67401C39.5643 6.45801 39.4743 6.09801 39.4743 5.97201C39.4743 5.57601 39.7983 5.57601 40.0323 5.57601H41.4723C41.8683 5.57601 42.0843 5.72001 42.3363 6.38601L42.7503 7.50201Z" fill="black"/>
<path d="M55.9516 6.54801C55.9696 5.84601 55.8076 4.56801 53.7376 4.56801C52.2796 4.56801 51.3436 5.34201 50.9476 5.70201C50.1196 6.45801 49.9936 7.19601 49.9936 7.46601C49.9936 7.59201 49.9756 7.62801 50.0836 7.75401C50.2096 7.86201 50.5516 7.79001 50.7136 7.73601L51.0556 7.62801C51.5416 7.48401 51.6856 6.98001 51.7756 6.72801C51.9736 6.09801 52.3516 5.16201 53.3956 5.16201C54.2056 5.16201 54.3316 5.82801 54.3136 6.67401L54.2596 8.60001C54.2596 8.85201 54.3316 8.97801 53.8816 9.21201C51.3436 10.508 50.0836 11.264 50.0836 12.722C50.0836 13.694 50.6236 14.36 51.5056 14.36C52.6396 14.36 53.6656 13.334 53.9536 12.974C54.0616 12.848 54.1156 12.776 54.1696 12.776C54.2416 12.776 54.2596 12.884 54.2596 12.938C54.2956 13.244 54.5476 14.324 55.4656 14.324C56.0236 14.324 56.4556 13.964 56.9056 13.478C57.0856 13.28 57.2656 13.01 57.2656 12.866C57.2656 12.812 57.2296 12.668 57.0496 12.668C56.9596 12.668 56.8876 12.776 56.7976 12.866C56.7076 12.956 56.5096 13.136 56.2936 13.136C55.8076 13.136 55.8076 12.254 55.8256 11.714L55.9516 6.54801ZM54.2236 11.066C54.2056 12.65 53.1616 13.064 52.6576 13.064C51.9556 13.064 51.8656 12.29 51.8656 12.02C51.8656 10.778 53.4316 10.004 53.8096 9.84201C54.0616 9.73401 54.1156 9.73401 54.1336 9.73401C54.2416 9.73401 54.2416 9.87801 54.2416 9.98601L54.2236 11.066Z" fill="black"/>
<path d="M59.9013 6.69201C59.5773 5.79201 59.7933 5.61201 60.2973 5.55801C60.6213 5.52201 60.8373 5.54001 60.8373 5.21601C60.8373 5.07201 60.7653 4.92801 60.3873 4.92801C59.8473 4.92801 59.3073 5.00001 58.7673 5.00001C58.2273 5.00001 57.6873 4.92801 57.1653 4.92801C56.8953 4.92801 56.7513 4.96401 56.7513 5.21601C56.7513 5.48601 56.9853 5.50401 57.1293 5.52201C57.5613 5.55801 57.7053 5.55801 58.1013 6.67401L60.5853 13.532C60.7653 14.036 60.8013 14.216 60.8013 14.342C60.8013 14.558 60.6933 14.756 60.6393 14.954L60.3873 15.746C60.1353 16.538 59.9553 16.664 59.6133 16.664C59.4873 16.664 59.3793 16.628 59.2533 16.628C58.2813 16.628 58.2453 17.312 58.2453 17.618C58.2453 18.158 58.4433 18.5 59.3973 18.5C60.0813 18.5 60.2973 18.536 60.5673 17.312C60.8373 16.106 61.1433 15.134 61.5933 13.874L63.9333 7.41201C64.4913 5.90001 64.5813 5.63001 65.0493 5.54001L65.2473 5.50401C65.3373 5.48601 65.5173 5.45001 65.5173 5.21601C65.5173 4.96401 65.4093 4.92801 65.1393 4.92801C64.8153 4.92801 64.4733 5.00001 64.1493 5.00001C63.6813 5.00001 63.2133 4.92801 62.7273 4.92801C62.2953 4.92801 62.2773 5.10801 62.2773 5.21601C62.2773 5.36001 62.2773 5.50401 62.7093 5.54001C63.0333 5.55801 63.5193 5.59401 63.5193 6.29601C63.5193 6.49401 63.4833 6.76401 63.2493 7.43001L61.8993 11.354C61.8093 11.606 61.7733 11.75 61.7193 11.75C61.6653 11.75 61.6293 11.606 61.5393 11.354L59.9013 6.69201Z" fill="black"/>
<path d="M71.2219 11.696C71.2219 13.262 70.8439 13.334 70.1419 13.37C70.0159 13.37 69.7999 13.388 69.7999 13.676C69.7999 14 70.1059 14 70.1779 14C70.8619 14 71.5459 13.892 72.2119 13.892C72.9139 13.892 73.5979 14 74.3179 14C74.4799 14 74.6599 13.982 74.6599 13.676C74.6599 13.514 74.6599 13.388 74.3539 13.37C73.4359 13.316 73.0039 13.28 73.0039 11.696V8.09601C73.0039 7.52001 73.1839 7.53801 73.4539 7.53801H74.2639C75.3979 7.53801 75.7039 7.98801 75.8119 8.49201L75.9379 9.03201C76.0099 9.37401 76.0999 9.66201 76.3519 9.66201C76.6219 9.66201 76.5679 9.28401 76.5499 8.92401C76.4779 7.82601 76.4599 6.99801 76.5859 5.73801C76.6039 5.54001 76.6579 5.10801 76.3699 5.10801C76.1539 5.10801 76.0999 5.36001 76.0639 5.50401L75.9379 5.91801C75.8119 6.33201 75.5599 6.83601 74.6779 6.83601H73.4719C73.0039 6.83601 73.0039 6.45801 73.0039 6.18801V2.85801C73.0039 2.26401 73.0759 2.10201 74.2639 2.10201C75.5599 2.10201 76.4779 2.03001 77.0539 3.86601C77.1079 4.04601 77.1979 4.28001 77.4139 4.28001C77.6299 4.28001 77.6479 4.02801 77.6479 3.81201C77.6659 3.09201 77.5939 3.09201 77.6479 2.12001C77.6659 1.74201 77.6839 1.61601 77.6299 1.50801C77.5759 1.40001 77.4859 1.40001 77.3779 1.40001C76.8919 1.40001 75.1999 1.47201 74.5879 1.47201L72.1219 1.45401C71.8339 1.45401 71.5639 1.45401 71.2759 1.43601C70.9339 1.41801 70.6099 1.40001 70.2679 1.40001C69.8359 1.40001 69.7999 1.52601 69.7999 1.70601C69.7999 1.97601 70.0159 2.01201 70.1239 2.01201C70.9699 2.03001 71.2219 2.30001 71.2219 3.68601V11.696Z" fill="black"/>
<path d="M79.6535 12.038C79.6535 13.046 79.4375 13.244 78.9695 13.334L78.6635 13.388C78.4475 13.424 78.4295 13.604 78.4295 13.676C78.4295 13.748 78.4115 14 78.8795 14C79.4375 14 79.9775 13.928 80.5175 13.928C81.1115 13.928 81.7235 14 82.3355 14C82.5335 14 82.8035 13.982 82.8035 13.676C82.8035 13.55 82.6955 13.406 82.5515 13.388L82.2275 13.334C81.3635 13.19 81.2555 12.848 81.2555 12.038V8.36601C81.2555 6.98001 81.7775 6.08001 82.2635 6.08001C82.5695 6.08001 82.6595 6.33201 82.7855 6.53001C83.0015 6.89001 83.3075 6.99801 83.5235 6.99801C83.9555 6.99801 84.5135 6.67401 84.5135 5.90001C84.5135 5.01801 83.9015 4.65801 83.3075 4.65801C82.6415 4.65801 82.1735 5.16201 81.8675 5.57601L81.5795 5.97201C81.3275 6.31401 81.2735 6.38601 81.2375 6.38601C81.1295 6.38601 81.1655 6.22401 81.1475 6.08001C81.0935 5.55801 81.1835 5.23401 81.1835 4.67601C81.1835 4.64001 81.1835 4.42401 80.9675 4.42401C80.8775 4.42401 80.7875 4.47801 80.7155 4.55001C80.4095 4.82001 80.3375 5.05401 79.6355 5.57601C79.0595 6.00801 78.9695 5.91801 78.7355 6.06201C78.6095 6.13401 78.5915 6.22401 78.5915 6.33201C78.5915 6.60201 78.7175 6.58401 78.8255 6.58401H78.9695C79.6535 6.58401 79.6535 7.05201 79.6535 7.55601V12.038Z" fill="black"/>
<path d="M88.0055 5.12601C88.0055 4.85601 88.1135 4.49601 87.8435 4.49601C87.6995 4.49601 87.6275 4.56801 87.5555 4.64001C87.1955 5.01801 86.6195 5.73801 85.7195 6.06201C85.4495 6.17001 85.3415 6.22401 85.3415 6.42201C85.3415 6.67401 85.5035 6.67401 85.5935 6.67401H85.7375C86.4215 6.67401 86.4035 7.14201 86.4035 7.64601V12.038C86.4035 13.064 86.2415 13.244 85.7375 13.334L85.4495 13.388C85.2515 13.424 85.1795 13.586 85.1795 13.676C85.1795 13.982 85.4495 14 85.6475 14C86.1695 14 86.6915 13.928 87.2135 13.928C87.7175 13.928 88.2035 14 88.7075 14C89.0675 14 89.2115 13.946 89.2115 13.694C89.2115 13.388 88.9595 13.388 88.6895 13.334C87.9695 13.208 88.0055 12.686 88.0055 12.038V5.12601ZM87.1775 0.986008C86.7815 0.986008 86.1335 1.23801 86.1335 2.17401C86.1335 3.11001 86.7815 3.36201 87.1775 3.36201C87.5735 3.36201 88.2215 3.11001 88.2215 2.17401C88.2215 1.23801 87.5735 0.986008 87.1775 0.986008Z" fill="black"/>
<path d="M96.8514 8.04201C97.2654 8.04201 97.2834 7.75401 97.2834 7.59201C97.2834 7.01601 97.0134 6.36801 96.7434 5.93601C96.1674 5.00001 95.3754 4.56801 94.2594 4.56801C91.9194 4.56801 90.1554 6.56601 90.1554 9.46401C90.1554 11.66 91.3614 14.36 93.9714 14.36C95.0694 14.36 96.1854 13.892 96.9594 12.83C97.0854 12.668 97.2114 12.434 97.2114 12.218C97.2114 12.056 97.1034 12.02 97.0314 12.02C96.8694 12.02 96.7434 12.218 96.4554 12.506C95.9874 12.992 95.4474 13.19 94.7994 13.19C92.7474 13.19 91.8834 11.066 91.8834 9.17601C91.8834 8.34801 91.9194 8.04201 92.3514 8.04201H96.8514ZM92.5314 7.48401C92.1354 7.48401 92.1354 7.32201 92.1354 7.17801C92.1354 6.92601 92.2254 6.56601 92.5314 6.11601C93.0894 5.30601 93.7734 5.16201 94.1874 5.16201C95.1594 5.16201 95.6274 5.90001 95.6274 6.45801C95.6274 7.46601 94.6194 7.44801 93.8454 7.46601L92.5314 7.48401Z" fill="black"/>
<path d="M99.6223 12.038C99.6223 12.686 99.6583 13.19 98.9383 13.334L98.6503 13.388C98.5063 13.406 98.3983 13.55 98.3983 13.676C98.3983 13.982 98.6683 14 98.8483 14C99.3703 14 99.8923 13.928 100.396 13.928C100.882 13.928 101.386 14 101.89 14C102.286 14 102.34 13.892 102.34 13.676C102.34 13.622 102.34 13.442 102.106 13.388L101.836 13.334C101.296 13.226 101.224 12.866 101.224 12.038V7.52001C101.224 6.58401 102.07 5.63001 103.204 5.63001C104.806 5.63001 104.932 7.30401 104.932 8.27601V12.038C104.932 13.154 104.77 13.334 104.23 13.37C103.834 13.406 103.816 13.586 103.816 13.676C103.816 13.748 103.816 14 104.212 14C104.752 14 105.256 13.928 105.76 13.928C106.264 13.928 106.768 14 107.29 14C107.722 14 107.74 13.838 107.74 13.676C107.74 13.55 107.722 13.406 107.362 13.37C106.48 13.262 106.534 12.812 106.534 12.038V8.06001C106.534 7.07001 106.462 6.02601 105.598 5.19801C105.256 4.87401 104.734 4.56801 103.978 4.56801C103.132 4.56801 102.466 5.01801 102.016 5.45001C101.476 5.95401 101.422 6.08001 101.314 6.08001C101.188 6.08001 101.188 5.90001 101.188 5.77401L101.206 5.18001C101.224 4.82001 101.26 4.44201 101.026 4.44201C100.918 4.44201 100.864 4.51401 100.792 4.58601C100.45 4.98201 99.9463 5.52201 98.9383 6.00801C98.5783 6.18801 98.5603 6.20601 98.5603 6.38601C98.5603 6.47601 98.5783 6.63801 98.7943 6.63801H98.9383C99.3163 6.63801 99.6223 6.63801 99.6223 7.61001V12.038Z" fill="black"/>
<path d="M116.262 1.13001C116.262 0.896008 116.316 0.428009 116.082 0.428009C115.992 0.428009 115.92 0.518009 115.56 0.716009C115.02 1.00401 114.606 1.16601 114.066 1.31001C113.796 1.38201 113.652 1.43601 113.652 1.65201C113.652 1.94001 113.922 1.92201 114.12 1.92201C114.57 1.95801 114.66 2.21001 114.66 3.02001V4.89201C114.66 5.09001 114.678 5.16201 114.408 5.03601C113.958 4.83801 113.616 4.56801 112.734 4.56801C110.952 4.56801 108.648 6.00801 108.648 9.59001C108.648 12.416 110.124 14.36 112.05 14.36C112.536 14.36 113.436 14.216 114.444 13.136C114.588 12.992 114.678 13.028 114.696 13.262L114.75 13.982C114.786 14.45 115.056 14.324 115.236 14.252L117.144 13.388C117.306 13.316 117.396 13.244 117.396 13.046L117.414 12.596C117.432 12.362 117.288 12.344 117.252 12.344C117.18 12.344 117.072 12.434 116.838 12.794C116.766 12.884 116.658 13.064 116.514 13.064C116.244 13.064 116.262 12.65 116.262 12.326V1.13001ZM114.66 11.804C114.66 12.65 113.85 13.208 113.004 13.208C111.528 13.208 110.376 11.66 110.376 9.26601C110.376 6.33201 111.762 5.16201 112.878 5.16201C114.624 5.16201 114.66 6.85401 114.66 7.41201V11.804Z" fill="black"/>
<path d="M123.446 5.45001C123.446 5.14401 123.446 5.03601 123.086 4.89201C122.618 4.69401 121.916 4.56801 121.322 4.56801C119.666 4.56801 118.442 5.68401 118.442 7.37601C118.442 8.07801 118.694 9.15801 120.296 9.86001L121.088 10.202C121.736 10.472 122.528 10.868 122.528 12.092C122.528 13.064 121.79 13.766 120.782 13.766C119.504 13.766 119.144 12.776 119 12.182C118.892 11.714 118.856 11.084 118.532 11.084C118.226 11.084 118.244 11.732 118.244 12.038L118.226 13.118C118.208 14 119.81 14.36 120.692 14.36C122.546 14.36 123.86 12.866 123.86 11.12C123.86 9.39201 122.87 8.78001 122.024 8.42001L121.232 8.07801C120.656 7.82601 119.792 7.43001 119.792 6.45801C119.792 5.66601 120.458 5.16201 121.196 5.16201C121.628 5.16201 122.276 5.30601 122.726 6.38601C122.852 6.67401 122.96 7.01601 123.176 7.01601C123.428 7.01601 123.428 6.60201 123.428 6.29601L123.446 5.45001Z" fill="black"/>
</svg>
