<svg width="63" height="63" viewBox="0 0 63 63" fill="none" xmlns="http://www.w3.org/2000/svg">
<circle cx="31.5" cy="31.5" r="31" fill="#F6EEE3" stroke="black"/>
<path d="M48 37.9825H46.97C46.98 37.8225 47 37.6525 47 37.4825C47 33.9025 44.08 30.9825 40.5 30.9825C40.26 30.9825 40.02 31.0025 39.76 31.0325C38.41 27.9925 35.34 25.9825 32 25.9825C28.66 25.9825 25.59 27.9925 24.24 31.0325C23.98 31.0025 23.74 30.9825 23.5 30.9825C19.92 30.9825 17 33.9025 17 37.4825C17 37.6525 17.01 37.8225 17.03 37.9825H16C14.93 37.9825 13.92 38.4025 13.18 39.1525C12.42 39.9025 12 40.9025 12 41.9825C12 42.0225 12 42.0825 12.01 42.1525C12.09 44.2725 13.87 45.9825 16 45.9825H48C49.07 45.9825 50.08 45.5625 50.82 44.8125C51.58 44.0625 52 43.0625 52 41.9825C52 39.7825 50.21 37.9825 48 37.9825ZM50.11 44.1025C49.55 44.6725 48.8 44.9825 48 44.9825H16C14.39 44.9825 13.05 43.6825 13 41.9825C13 41.1825 13.31 40.4325 13.89 39.8625C14.45 39.2925 15.2 38.9825 16 38.9825H17.59C17.6 38.9825 17.61 38.9725 17.63 38.9725C17.64 38.9725 17.66 38.9725 17.67 38.9725C17.69 38.9725 17.71 38.9525 17.73 38.9525C17.76 38.9425 17.79 38.9325 17.83 38.9125C17.86 38.9025 17.88 38.8825 17.91 38.8625C17.94 38.8425 17.96 38.8225 17.98 38.7925C18 38.7725 18.02 38.7425 18.03 38.7125C18.05 38.6825 18.06 38.6525 18.07 38.6225C18.08 38.5925 18.09 38.5625 18.09 38.5225C18.09 38.5025 18.1 38.4825 18.1 38.4625C18.1 38.4525 18.09 38.4425 18.09 38.4225C18.09 38.4125 18.09 38.3925 18.09 38.3825C18.05 38.1525 18.01 37.8025 18.01 37.4625C18.01 34.4325 20.48 31.9625 23.51 31.9625C23.8 31.9625 24.12 31.9925 24.47 32.0525C24.71 32.1025 24.94 31.9625 25.02 31.7425C26.13 28.8825 28.94 26.9625 32 26.9625C35.06 26.9625 37.87 28.8825 38.98 31.7425C39.07 31.9625 39.3 32.1025 39.53 32.0525C39.88 31.9925 40.2 31.9625 40.49 31.9625C43.52 31.9625 45.99 34.4325 45.99 37.4625C45.99 37.8025 45.94 38.1525 45.91 38.3825C45.91 38.3925 45.91 38.4125 45.91 38.4225C45.91 38.4325 45.9 38.4425 45.9 38.4625C45.9 38.4825 45.91 38.5025 45.91 38.5225C45.91 38.5525 45.92 38.5925 45.93 38.6225C45.94 38.6525 45.95 38.6825 45.97 38.7125C45.99 38.7425 46 38.7625 46.02 38.7925C46.04 38.8225 46.07 38.8425 46.09 38.8625C46.11 38.8825 46.14 38.9025 46.17 38.9125C46.2 38.9325 46.23 38.9425 46.27 38.9525C46.29 38.9625 46.31 38.9725 46.33 38.9725C46.36 38.9725 46.38 38.9825 46.41 38.9825H48C49.65 38.9825 51 40.3325 51 41.9825C51 42.7925 50.69 43.5425 50.11 44.1025Z" fill="black"/>
<path d="M49 47.9825H15C14.72 47.9825 14.5 48.2025 14.5 48.4825C14.5 48.7625 14.72 48.9825 15 48.9825H49C49.28 48.9825 49.5 48.7625 49.5 48.4825C49.5 48.2025 49.28 47.9825 49 47.9825Z" fill="black"/>
<path d="M15.94 13.1225C15.78 12.9825 15.55 12.9625 15.36 13.0625C12.67 14.5625 11 17.4125 11 20.4825C11 25.1725 14.81 28.9825 19.5 28.9825C22.98 28.9825 26.08 26.8925 27.38 23.6525C27.46 23.4525 27.41 23.2325 27.25 23.0925C27.09 22.9525 26.86 22.9225 26.68 23.0325C25.57 23.6525 24.3 23.9825 23.03 23.9825C18.89 23.9825 15.53 20.6225 15.53 16.4825C15.53 15.5225 15.71 14.5825 16.07 13.6825C16.15 13.4925 16.09 13.2625 15.94 13.1225ZM23.02 24.9825C23.98 24.9825 24.93 24.8225 25.83 24.5025C24.47 26.6525 22.11 27.9825 19.5 27.9825C15.36 27.9825 12 24.6225 12 20.4825C12 18.2325 13.01 16.1325 14.71 14.7125C14.59 15.3025 14.52 15.8925 14.52 16.4825C14.52 21.1725 18.34 24.9825 23.02 24.9825Z" fill="black"/>
<path d="M34.5 23.9825H35.5C35.78 23.9825 36 23.7625 36 23.4825C36 23.2025 35.78 22.9825 35.5 22.9825H34.5C34.22 22.9825 34 23.2025 34 23.4825C34 23.7625 34.22 23.9825 34.5 23.9825Z" fill="black"/>
<path d="M30.5 16.9825C30.78 16.9825 31 16.7625 31 16.4825C31 16.2025 30.78 15.9825 30.5 15.9825H29.5C29.22 15.9825 29 16.2025 29 16.4825C29 16.7625 29.22 16.9825 29.5 16.9825H30.5Z" fill="black"/>
<path d="M34.5 19.9825H35.5C35.78 19.9825 36 19.7625 36 19.4825C36 19.2025 35.78 18.9825 35.5 18.9825H34.5C34.22 18.9825 34 19.2025 34 19.4825C34 19.7625 34.22 19.9825 34.5 19.9825Z" fill="black"/>
<path d="M39.5 20.9825H40.5C40.78 20.9825 41 20.7625 41 20.4825C41 20.2025 40.78 19.9825 40.5 19.9825H39.5C39.22 19.9825 39 20.2025 39 20.4825C39 20.7625 39.22 20.9825 39.5 20.9825Z" fill="black"/>
<path d="M39.5 23.9825H40.5C40.78 23.9825 41 23.7625 41 23.4825C41 23.2025 40.78 22.9825 40.5 22.9825H39.5C39.22 22.9825 39 23.2025 39 23.4825C39 23.7625 39.22 23.9825 39.5 23.9825Z" fill="black"/>
<path d="M44.5 23.9825H45.5C45.78 23.9825 46 23.7625 46 23.4825C46 23.2025 45.78 22.9825 45.5 22.9825H44.5C44.22 22.9825 44 23.2025 44 23.4825C44 23.7625 44.22 23.9825 44.5 23.9825Z" fill="black"/>
<path d="M42.5 16.9825H43.5C43.78 16.9825 44 16.7625 44 16.4825C44 16.2025 43.78 15.9825 43.5 15.9825H42.5C42.22 15.9825 42 16.2025 42 16.4825C42 16.7625 42.22 16.9825 42.5 16.9825Z" fill="black"/>
<path d="M42.5 19.9825H43.5C43.78 19.9825 44 19.7625 44 19.4825C44 19.2025 43.78 18.9825 43.5 18.9825H42.5C42.22 18.9825 42 19.2025 42 19.4825C42 19.7625 42.22 19.9825 42.5 19.9825Z" fill="black"/>
<path d="M48.5 19.9825C48.78 19.9825 49 19.7625 49 19.4825C49 19.2025 48.78 18.9825 48.5 18.9825H47.5C47.22 18.9825 47 19.2025 47 19.4825C47 19.7625 47.22 19.9825 47.5 19.9825H48.5Z" fill="black"/>
<path d="M19.5 16.9825H20.5C20.78 16.9825 21 16.7625 21 16.4825C21 16.2025 20.78 15.9825 20.5 15.9825H19.5C19.22 15.9825 19 16.2025 19 16.4825C19 16.7625 19.22 16.9825 19.5 16.9825Z" fill="black"/>
<path d="M19.5 19.9825H20.5C20.78 19.9825 21 19.7625 21 19.4825C21 19.2025 20.78 18.9825 20.5 18.9825H19.5C19.22 18.9825 19 19.2025 19 19.4825C19 19.7625 19.22 19.9825 19.5 19.9825Z" fill="black"/>
<path d="M25.5 19.9825C25.78 19.9825 26 19.7625 26 19.4825C26 19.2025 25.78 18.9825 25.5 18.9825H24.5C24.22 18.9825 24 19.2025 24 19.4825C24 19.7625 24.22 19.9825 24.5 19.9825H25.5Z" fill="black"/>
</svg>
