<svg width="63" height="63" viewBox="0 0 63 63" fill="none" xmlns="http://www.w3.org/2000/svg">
<circle cx="31.5" cy="31.5" r="31" fill="#F6EEE3" stroke="black"/>
<path d="M22.8 15.5333V16.6C22.8 16.8987 23.0347 17.1333 23.3333 17.1333C23.632 17.1333 23.8667 16.8987 23.8667 16.6V15.5333C23.8667 15.2347 23.632 15 23.3333 15C23.0347 15 22.8 15.2347 22.8 15.5333Z" fill="black"/>
<path d="M10 28.3333C10 28.632 10.2347 28.8667 10.5333 28.8667H11.6C11.8987 28.8667 12.1333 28.632 12.1333 28.3333C12.1333 28.0347 11.8987 27.8 11.6 27.8H10.5333C10.2347 27.8 10 28.0347 10 28.3333Z" fill="black"/>
<path d="M13.904 18.904C13.6907 19.1173 13.6907 19.448 13.904 19.6613L14.6614 20.4187C14.768 20.5253 14.9067 20.5787 15.0347 20.5787C15.1627 20.5787 15.312 20.5253 15.408 20.4187C15.6214 20.2053 15.6214 19.8747 15.408 19.6613L14.6507 18.904C14.448 18.7013 14.1174 18.7013 13.904 18.904Z" fill="black"/>
<path d="M32.0053 18.904L31.248 19.6613C31.0347 19.8747 31.0347 20.2053 31.248 20.4187C31.3547 20.5253 31.4933 20.5787 31.6213 20.5787C31.7493 20.5787 31.8987 20.5253 31.9947 20.4187L32.752 19.6613C32.9653 19.448 32.9653 19.1173 32.752 18.904C32.5387 18.6907 32.2187 18.7013 32.0053 18.904Z" fill="black"/>
<path d="M14.2667 43.8H48.4C49.5413 43.8 50.6187 43.352 51.408 42.552C52.2187 41.752 52.6667 40.6746 52.6667 39.5333C52.6667 37.176 50.7573 35.2666 48.4 35.2666H47.3013C47.312 35.096 47.3333 34.9146 47.3333 34.7333C47.3333 30.9146 44.2187 27.8 40.4 27.8C40.144 27.8 39.888 27.8213 39.6107 27.8533C38.2027 24.696 35.056 22.5946 31.5893 22.488C31.2587 22.0186 30.896 21.5813 30.4907 21.176C30.032 20.7173 29.5413 20.312 29.008 19.9493C28.912 19.8746 28.8053 19.8106 28.6987 19.7466L28.6133 19.6933C27.856 19.224 27.0133 18.8613 26.1493 18.616C26 18.5626 25.8613 18.52 25.744 18.4986C24.1653 18.104 22.5013 18.104 20.9547 18.488C20.8053 18.52 20.6667 18.552 20.5493 18.5946C19.6533 18.8506 18.8107 19.224 18.0533 19.6933L17.968 19.7466C17.8613 19.8106 17.7653 19.8746 17.68 19.9386C17.136 20.312 16.6453 20.7173 16.1867 21.176C15.728 21.6346 15.3227 22.1253 14.96 22.6586C14.896 22.7546 14.832 22.8506 14.768 22.9466L14.6933 23.064C14.224 23.832 13.8507 24.6746 13.616 25.528C13.552 25.6666 13.5093 25.8053 13.488 25.9226C13.0933 27.5013 13.0933 29.1653 13.4773 30.712C13.5093 30.8613 13.5413 31.0106 13.584 31.1173C13.84 32.0133 14.2027 32.856 14.6827 33.624L14.7467 33.7306C14.8107 33.8266 14.864 33.9226 14.928 33.9973C15.056 34.1786 15.1947 34.36 15.3333 34.5413C15.344 34.6053 15.3333 34.6693 15.3333 34.7333C15.3333 34.9146 15.344 35.096 15.3653 35.2666H14.2667C13.1253 35.2666 12.048 35.7146 11.2587 36.5146C10.448 37.3146 10 38.392 10 39.5333C10 39.576 10 39.64 10.0107 39.7146C10.096 41.9653 11.9947 43.8 14.2667 43.8ZM14.608 30.7866C14.576 30.7013 14.5547 30.6053 14.5227 30.488C14.1707 29.08 14.1707 27.5866 14.5333 26.1466C14.544 26.0613 14.576 25.9653 14.6187 25.848C14.8427 25.048 15.1733 24.2906 15.5893 23.6186L15.664 23.5013C15.7067 23.4266 15.76 23.352 15.8133 23.2666C16.144 22.776 16.5067 22.3386 16.9227 21.9226C17.3387 21.5066 17.776 21.144 18.2773 20.8026C18.352 20.7493 18.4373 20.696 18.608 20.5893C19.2907 20.1733 20.0373 19.8426 20.88 19.5973C20.9653 19.5653 21.0613 19.544 21.1787 19.5226C22.5867 19.1706 24.08 19.1706 25.52 19.5333C25.6053 19.5546 25.7013 19.576 25.8187 19.6186C26.6187 19.8533 27.376 20.1733 28.048 20.5893L28.144 20.6426C28.2187 20.696 28.304 20.7386 28.4 20.8133C28.8907 21.144 29.328 21.5066 29.744 21.9226C29.936 22.1146 30.128 22.3173 30.3093 22.5413C27.1627 22.9146 24.368 24.9306 23.056 27.8533C22.7787 27.8213 22.5227 27.8 22.2667 27.8C19.0453 27.8 16.336 30.008 15.568 32.9946C15.1627 32.3226 14.8427 31.5973 14.608 30.7866ZM12.016 37.272C12.6133 36.664 13.4133 36.3333 14.2667 36.3333H15.9627C15.9733 36.3333 15.984 36.3226 16.0053 36.3226C16.016 36.3226 16.0373 36.3226 16.048 36.3226C16.0693 36.3226 16.0907 36.3013 16.112 36.3013C16.144 36.2906 16.176 36.28 16.2187 36.2586C16.2507 36.248 16.272 36.2266 16.304 36.2053C16.336 36.184 16.3573 36.1626 16.3787 36.1306C16.4 36.1093 16.4213 36.0773 16.432 36.0453C16.4533 36.0133 16.464 35.9813 16.4747 35.9493C16.4853 35.9173 16.496 35.8853 16.496 35.8426C16.496 35.8213 16.5067 35.8 16.5067 35.7786C16.5067 35.768 16.496 35.7573 16.496 35.736C16.496 35.7253 16.496 35.704 16.496 35.6933C16.4533 35.4693 16.4 35.096 16.4 34.7333C16.4 34.6373 16.4107 34.5413 16.4107 34.456C16.4107 34.4453 16.4107 34.4346 16.4107 34.4133C16.5813 31.3306 19.1307 28.8666 22.256 28.8666C22.5653 28.8666 22.9067 28.8986 23.28 28.9626C23.536 29.016 23.7813 28.8666 23.8667 28.632C25.0507 25.592 28.0267 23.5546 31.2693 23.5333C31.3013 23.5333 31.3227 23.5333 31.3547 23.5333C34.608 23.5546 37.584 25.592 38.768 28.632C38.864 28.8666 39.1093 29.016 39.3547 28.9626C39.7493 28.8986 40.0907 28.8666 40.4 28.8666C43.632 28.8666 46.2667 31.5013 46.2667 34.7333C46.2667 35.096 46.2133 35.4693 46.1813 35.7146C46.1813 35.7253 46.1813 35.7466 46.1813 35.7573C46.1813 35.768 46.1707 35.7786 46.1707 35.8C46.1707 35.8213 46.1813 35.8426 46.1813 35.864C46.1813 35.896 46.192 35.9386 46.2027 35.9706C46.2133 36.0026 46.224 36.0346 46.2453 36.0666C46.2667 36.0986 46.2773 36.12 46.2987 36.152C46.32 36.184 46.352 36.2053 46.3733 36.2266C46.3947 36.248 46.4267 36.2693 46.4587 36.28C46.4907 36.3013 46.5227 36.312 46.5653 36.3226C46.5867 36.3333 46.608 36.344 46.6293 36.344C46.6613 36.344 46.6827 36.3546 46.7147 36.3546H48.4C50.16 36.3546 51.6 37.7946 51.6 39.5546C51.6 40.408 51.2693 41.208 50.6507 41.816C50.0533 42.4026 49.2533 42.7333 48.4 42.7333H14.2667C12.5493 42.7333 11.12 41.3466 11.0667 39.5333C11.0667 38.68 11.3973 37.88 12.016 37.272Z" fill="black"/>
<path d="M50.5333 46.4667C50.5333 46.168 50.2987 45.9333 50 45.9333H13.7333C13.4347 45.9333 13.2 46.168 13.2 46.4667C13.2 46.7653 13.4347 47 13.7333 47H50C50.2987 47 50.5333 46.7653 50.5333 46.4667Z" fill="black"/>
</svg>
